<svg width="33" height="35" viewBox="0 0 33 35" fill="none" xmlns="http://www.w3.org/2000/svg">
<path d="M32.1709 10.2884C31.9443 11.1818 31.5042 12.912 31.0675 14.6221C30.9462 15.0779 30.7902 15.5237 30.6008 15.9556C29.7574 17.9558 29.6207 20.0327 29.5507 22.1562C29.454 25.0831 29.094 27.9834 28.0272 30.7437C27.8076 31.3161 27.5259 31.8628 27.1871 32.3738C25.7236 34.5973 22.8534 34.6874 21.3566 32.4805C20.7543 31.4999 20.2931 30.4393 19.9864 29.3302C19.5131 27.8367 19.2064 26.2899 18.7897 24.7764C18.6454 24.2824 18.4369 23.8094 18.1696 23.3696C17.3495 22.0028 15.656 21.8528 14.7659 23.1729C14.1655 24.1523 13.6895 25.2027 13.3491 26.2999C12.7057 28.1234 12.1723 29.9869 11.5523 31.8171C11.3896 32.2283 11.1574 32.6083 10.8656 32.9405C9.62213 34.494 7.58194 34.5473 6.26849 33.0539C5.2014 31.7862 4.50875 30.2462 4.2683 28.6068C3.82999 26.1959 3.52062 23.7633 3.34153 21.3195C3.24181 19.5581 2.91578 17.817 2.37145 16.139C1.70472 14.1654 1.03799 12.1619 0.767965 10.1184C0.314588 6.59471 1.94474 3.87781 4.80835 1.92429C6.4285 0.817523 8.25866 0.9542 10.0622 1.46425C10.9856 1.72427 11.9023 1.99766 12.8024 2.32435C15.0567 3.16994 17.5385 3.18527 19.8031 2.36765C20.9365 1.98095 22.0967 1.64759 23.2601 1.36756C25.477 0.814174 27.4238 1.36758 29.1273 2.88772C31.1308 4.68122 32.1809 6.87474 32.1709 10.2884Z" stroke="#4D2C19" stroke-width="1.36" stroke-miterlimit="10" stroke-linecap="round"/>
</svg>
